# xmcd
#
# Track frame offsets:
#	183
#	20115
#	30593
#	48008
#	64670
#	78348
#	102220
#	116513
#	132140
#	148335
#	166975
#	179168
#	197450
#	213765
#	228900
#	246378
#	262098
#	277988
#	297910
#	329863
#
# Disc length: 4563 seconds
#
# Revision: 8
# Processed by: cddbd v1.5.2PL0 Copyright (c) Steve Scherf et al.
# Submitted via: audiograbber 1.83.01
#
DISCID=2c11d114
DTITLE=Thin Lizzy - Vagabonds Kings Warriors Angels [CD 3) - Warriors
DYEAR=2001
DGENRE=Rock
TTITLE0=Johnny
TTITLE1=Don't Believe A Word
TTITLE2=Fools Gold
TTITLE3=Johnny The Fox Meets Jimmy The Weed
TTITLE4=Massacre
TTITLE5=Soldier Of Fortune
TTITLE6=Bad Reputation
TTITLE7=Dancing In The Moonlight (It's Caught Me In Its Spotlight) [live]
TTITLE8=Killer Without A Cause
TTITLE9=Warrior [live]
TTITLE10=Are You Ready [live]
TTITLE11=Rosalie - Cowgirl's Song [live]
TTITLE12=Me And The Boys
TTITLE13=Parisienne Walkways
TTITLE14=Do Anything You Want To
TTITLE15=Waiting For An Alibi
TTITLE16=Sarah
TTITLE17=Got To Give It Up
TTITLE18=Roisin Dubh (Black Rose): A Rock Legend - i) Shenandoah ii) Will You G
TTITLE18=o Lassy Go iii) Danny Boy iv) The Mason's Apron
TTITLE19=Just The Two Of Us
EXTD=
EXTT0=
EXTT1=
EXTT2=
EXTT3=
EXTT4=
EXTT5=
EXTT6=
EXTT7=
EXTT8=
EXTT9=
EXTT10=
EXTT11=
EXTT12=
EXTT13=
EXTT14=
EXTT15=
EXTT16=
EXTT17=
EXTT18=
EXTT19=
PLAYORDER=
